Coordinates
version=1
nRows=16
nColumns=30
inDegrees=yes

Units are S.I. units (second, meters, Newtons, ...)
Angles are in degrees.

endheader
time	floatyaw	floatroll	floatpitch	floatx	floaty	floatz	pro_sup_l	deviation_l	flexion_l	cmc_flexion_l	cmc_abduction_l	mp_flexion_l	ip_flexion_l	2mcp_flexion_l	2mcp_abduction_l	2pm_flexion_l	2md_flexion_l	3mcp_flexion_l	3mcp_abduction_l	3pm_flexion_l	3md_flexion_l	4mcp_flexion_l	4mcp_abduction_l	4pm_flexion_l	4md_flexion_l	5mcp_flexion_l	5mcp_abduction_l	5pm_flexion_l	5md_flexion_l
0.005000	3.267846	-2.569086	98.473996	0.046767	-0.136048	0.044989	86.256096	15.399759	1.568199	24.370775	34.965710	-19.685656	-41.048914	23.406880	3.759093	55.566386	36.870526	30.136412	4.938776	48.649502	31.879470	25.571351	-4.316498	56.005265	39.610556	31.787959	-6.902345	49.707272	34.306037
0.015000	3.267846	-2.569086	98.473996	0.050646	-0.137856	0.046476	84.944322	15.694401	2.152922	23.788285	34.855107	-20.563416	-42.248826	25.324024	4.050852	57.209174	37.780915	31.528283	5.144478	51.147108	33.654814	27.335457	-4.569011	58.595606	41.398104	34.383707	-7.120115	52.465315	35.584454
0.025000	3.267846	-2.569086	98.473996	0.053459	-0.139656	0.047489	83.404983	16.029552	2.234094	23.222174	34.607330	-21.565152	-43.654278	27.830041	4.281922	58.513949	38.632144	33.198884	5.335310	53.479856	35.630981	29.421332	-4.823884	61.073244	43.469807	37.261772	-7.105400	55.702240	37.164881
0.035000	3.267846	-2.569086	98.473996	0.055364	-0.141283	0.048111	81.753560	16.339226	1.898126	22.712578	34.331146	-22.521117	-45.137461	30.592440	4.432775	59.387142	39.415003	35.007842	5.481849	55.379648	37.652331	31.695922	-5.058372	63.102135	45.661755	40.320483	-6.866741	58.991281	38.810390
0.045000	3.267846	-2.569086	98.473996	0.056605	-0.142671	0.048445	80.112038	16.576199	1.309734	22.269038	34.098900	-23.287781	-46.545226	33.288269	4.507943	59.831352	40.129186	36.808738	5.570845	56.722142	39.571041	34.006232	-5.258132	64.504526	47.800529	43.441137	-6.476006	61.959227	40.294207
0.055000	3.267846	-2.569086	98.473996	0.057441	-0.143836	0.048585	78.574730	16.730027	0.642842	21.883004	33.938690	-23.791593	-47.748457	35.685990	4.529047	59.922157	40.768391	38.478174	5.605980	57.530075	41.274068	36.205225	-5.418749	65.281894	49.736292	46.490164	-6.034557	64.386755	41.465608
0.065000	3.267846	-2.569086	98.473996	0.058079	-0.144819	0.048599	77.188535	16.824719	0.022378	21.542428	33.840075	-24.043996	-48.681749	37.680130	4.522688	59.773289	41.316985	39.933412	5.603022	57.932826	42.701296	38.176681	-5.543756	65.576158	51.370297	49.336067	-5.633709	66.235782	42.280140
0.075000	3.267846	-2.569086	98.473996	0.058645	-0.145613	0.048531	75.956893	16.901746	-0.503007	21.242138	33.768088	-24.123570	-49.355173	39.276679	4.509710	59.502596	41.757117	41.136382	5.582298	58.106288	43.848766	39.852059	-5.640900	65.596269	52.668627	51.876665	-5.327331	67.604678	42.786388
0.085000	3.267846	-2.569086	98.473996	0.059179	-0.146112	0.048405	74.862015	16.999627	-0.953520	20.987540	33.679360	-24.138060	-49.837317	40.548210	4.500038	59.207641	42.079146	42.087609	5.561470	58.216370	44.755500	41.214119	-5.718609	65.543038	53.657925	54.062124	-5.124902	68.647191	43.082526
0.095000	3.267846	-2.569086	98.473996	0.059665	-0.146134	0.048244	73.889841	17.139414	-1.385754	20.792167	33.535296	-24.185588	-50.222981	41.584526	4.493408	58.954821	42.288533	42.816133	5.550730	58.379958	45.479542	42.287748	-5.783768	65.557304	54.405709	55.900838	-5.002216	69.499028	43.266420
0.105000	3.267846	-2.569086	98.473996	0.060071	-0.145481	0.048074	73.043355	17.320155	-1.851987	20.670933	33.308694	-24.328560	-50.600678	42.458385	4.483910	58.779731	42.405909	43.369940	5.551388	58.646883	46.073287	43.123733	-5.840969	65.700675	54.993049	57.445791	-4.920595	70.239383	43.400288
0.115000	3.267846	-2.569086	98.473996	0.060380	-0.144055	0.047918	72.338920	17.523874	-2.368920	20.631566	32.983231	-24.583797	-51.028326	43.213819	4.465689	58.691845	42.460439	43.807810	5.557714	59.000597	46.567533	43.782619	-5.892768	65.963768	55.488592	58.769516	-4.845128	70.890191	43.499878
0.125000	3.267846	-2.569086	98.473996	0.060605	-0.141939	0.047790	71.790275	17.726501	-2.908527	20.667238	32.549395	-24.926570	-51.520093	43.873313	4.437369	58.677398	42.479489	44.190685	5.560929	59.374200	46.969240	44.322948	-5.940346	66.290118	55.931533	59.939435	-4.755885	71.438663	43.545973
0.135000	3.267846	-2.569086	98.473996	0.060780	-0.139417	0.047687	71.391106	17.909326	-3.413491	20.753911	32.002583	-25.304929	-52.046415	44.452461	4.403392	58.701016	42.480099	44.570652	5.553677	59.678732	47.272020	44.793853	-5.984103	66.604783	56.328433	61.001695	-4.650463	71.865015	43.508288
0.145000	3.267846	-2.569086	98.473996	0.060939	-0.136911	0.047590	71.107574	18.065385	-3.827708	20.855022	31.346269	-25.660413	-52.548516	44.969171	4.371911	58.713128	42.467495	44.978501	5.533251	59.838371	47.472450	45.229446	-6.023973	66.841176	56.664011	61.975225	-4.539614	72.163595	43.369775
0.155000	3.267846	-2.569086	98.473996	0.061093	-0.134838	0.047475	70.886355	18.197840	-4.124619	20.933268	30.597141	-25.949324	-52.964155	45.440955	4.350621	58.668009	42.441245	45.414729	5.502432	59.821854	47.582232	45.643883	-6.059574	66.962078	56.919700	62.853870	-4.439359	72.353063	43.141534
